<?xml version="1.0" encoding="UTF-8"?>
<!--Created with Dunnart (http://www.csse.monash.edu.au/~mwybrow/dunnart/)-->
<svg xmlns:inkscape="http://www.inkscape.org/namespaces/inkscape" xmlns:dunnart="http://www.csse.monash.edu.au/~mwybrow/dunnart.dtd" xmlns:sodipodi="http://sodipodi.sourceforge.net/DTD/sodipodi-0.dtd" xmlns:xlink="http://www.w3.org/1999/xlink" xmlns="http://www.w3.org/2000/svg" width="484px" height="646px" viewBox="190 18 484 646">
  <dunnart:options useMultiway="1" instantFeedback="1" newConnType="53" orientation="0" graphMode="0" automaticGraphLayout="0" layoutMethod="0" layoutMode="0" nonOverlapConstraints="0" straightenConnectors="0" avoidBuffer="1" pageBoundaryConstraints="0" defaultIdealConnectorLength="1" penaliseCrossings="0"/>
  <sodipodi:namedview showguides="false" guidetolerance="5.0" guidecolor="#000000ff" guideopacity="0.25" bordercolor="#000000" borderopacity="0.5" width="484px" height="646px"/>
  <style type="text/css">.shape   { stroke:black; stroke-width:1px; fill:#f0f0d2; } .connector { fill:none; stroke:black; stroke-width:1px; stroke-linecap:butt; stroke-linejoin:miter; stroke-opacity:1; } .cluster { fill:#60cdf3; fill-opacity:0.33333333; } .tLabel { text-anchor:middle; text-align:center; } .tsLabel { font-size:11px; font-style:normal; font-weight:normal; fill:black; fill-opacity:1; stroke:none; font-family:DejaVu Sans; } .frLabel { font-size:11px; font-style:normal; font-weight:normal; fill:black; fill-opacity:1; stroke:none; stroke-width:1px; stroke-linecap:butt; stroke-linejoin:miter; stroke-opacity:1; font-family:DejaVu Sans; font-stretch:normal; font-variant:normal; text-anchor:middle; text-align:center; progression-align:center; writing-mode:lr; line-height:125%; } </style>
  <defs>
    <marker inkscape:stockid="ConnArrowEnd" orient="auto" refX="7.5" refY="0.0" id="ConnArrowEnd" style="overflow:visible;">
      <path d="M 0.0,0.0 L 1.0,-5.0 L -12.5,0.0 L 1.0,5.0 L 0.0,0.0 z" style="fill-rule:evenodd; stroke:black; stroke-width:1px; marker-start:none;" transform="scale(0.6) rotate(180)"/>
    </marker>
  </defs>
  <path dunnart:type="cluster" id="9" dunnart:contains="6 3 2 1" dunnart:fillColour="19568655;" dunnart:rectangular="0" class="cluster" d="M 451,305 L 451,305 L 507,305 L 550,370 L 550,399 L 491,404 L 435,404 L 435,375 L 443,350 L 451,305 L 451,305" style="fill:#195686;fill-opacity:0.333333;"/>
  <path dunnart:type="cluster" id="9" dunnart:contains="7 6 4 3 2 1" dunnart:fillColour="19568655;" dunnart:rectangular="0" class="cluster" d="M 386,314 L 386,314 L 443,307 L 451,305 L 507,305 L 550,370 L 550,399 L 491,404 L 421,405 L 364,405 L 364,364 L 381,350 L 386,314 L 386,314" style="fill:#195686;fill-opacity:0.333333;"/>
  <path dunnart:type="cluster" id="10" dunnart:contains="8 7 6 5 4 3 2 1" dunnart:rectangular="0" class="cluster" d="M 386,270 L 386,270 L 443,270 L 507,305 L 550,370 L 550,399 L 491,404 L 421,405 L 364,405 L 299,402 L 299,362 L 325,314 L 386,270 L 386,270"/>
  <path dunnart:type="cluster" id="12" dunnart:contains="11 5 4" dunnart:fillColour="19568655;" dunnart:rectangular="0" class="cluster" d="M 325,314 L 325,314 L 381,314 L 386,350 L 421,364 L 421,405 L 364,405 L 299,402 L 299,362 L 325,314 L 325,314" style="fill:#195686;fill-opacity:0.333333;"/>
  <rect dunnart:type="flowEndOProc" id="1" dunnart:xPos="462" dunnart:yPos="340" dunnart:width="60" dunnart:height="32" dunnart:label="Scotland" dunnart:fillColour="ffffffff;" class="shape" style="fill:#FFFFFF;" width="54" height="26" x="465" y="343.7999999" rx="13" ry="13"/>
  <text id="text1" class="tLabel" x="492" y="360.8">
    <tspan id="tspan1n0" class="tsLabel" x="492" y="360.8" sodipodi:role="line">Scotland</tspan>
  </text>
  <rect dunnart:type="flowEndOProc" id="2" dunnart:xPos="492" dunnart:yPos="369" dunnart:width="60" dunnart:height="32" dunnart:label="England" dunnart:fillColour="ffffffff;" class="shape" style="fill:#FFFFFF;" width="54" height="26" x="495" y="372" rx="13" ry="13"/>
  <text id="text2" class="tLabel" x="522" y="389">
    <tspan id="tspan2n0" class="tsLabel" x="522" y="389" sodipodi:role="line">England</tspan>
  </text>
  <rect dunnart:type="flowEndOProc" id="3" dunnart:xPos="433" dunnart:yPos="373" dunnart:width="60" dunnart:height="32" dunnart:label="Wales" dunnart:fillColour="ffffffff;" class="shape" style="fill:#FFFFFF;" width="54" height="26" x="436.7998573" y="376.9830429" rx="13" ry="13"/>
  <text id="text3" class="tLabel" x="463.8" y="393.983">
    <tspan id="tspan3n0" class="tsLabel" x="463.8" y="393.983" sodipodi:role="line">Wales</tspan>
  </text>
  <rect dunnart:type="flowEndOProc" id="4" dunnart:xPos="363" dunnart:yPos="362" dunnart:width="60" dunnart:height="44" dunnart:label="Northern&#10;Ireland" dunnart:fillColour="ffffffff;" class="shape" style="fill:#FFFFFF;" width="54" height="38" x="366.0000912" y="365.930186" rx="19" ry="19"/>
  <text id="text4" class="tLabel" x="393" y="381.93">
    <tspan id="tspan4n0" class="tsLabel" x="393" y="381.93" sodipodi:role="line">Northern</tspan>
    <tspan id="tspan4n1" class="tsLabel" x="393" y="395.93" sodipodi:role="line">Ireland</tspan>
  </text>
  <rect dunnart:type="flowEndOProc" id="5" dunnart:xPos="297" dunnart:yPos="360" dunnart:width="68" dunnart:height="44" dunnart:label="Republic&#10;of Ireland" dunnart:fillColour="ffffffff;" class="shape" style="fill:#FFFFFF;" width="62" height="38" x="300.6252657" y="363.7125205" rx="19" ry="19"/>
  <text id="text5" class="tLabel" x="331.625" y="379.713">
    <tspan id="tspan5n0" class="tsLabel" x="331.625" y="379.713" sodipodi:role="line">Republic</tspan>
    <tspan id="tspan5n1" class="tsLabel" x="331.625" y="393.713" sodipodi:role="line">of Ireland</tspan>
  </text>
  <rect dunnart:type="rect" id="6" dunnart:xPos="449" dunnart:yPos="303" dunnart:width="60" dunnart:height="40" dunnart:label="Great&#10;Britain" dunnart:fillColour="00000000;" dunnart:lineColour="00000000;" class="shape" style="fill:#000000;" width="54" height="34" x="452.8397915" y="306.199386"/>
  <text id="text6" class="tLabel" x="479.84" y="320.199">
    <tspan id="tspan6n0" class="tsLabel" x="479.84" y="320.199" sodipodi:role="line">Great</tspan>
    <tspan id="tspan6n1" class="tsLabel" x="479.84" y="334.199" sodipodi:role="line">Britain</tspan>
  </text>
  <rect dunnart:type="rect" id="7" dunnart:xPos="385" dunnart:yPos="312" dunnart:width="60" dunnart:height="40" dunnart:label="United&#10;Kingdom" dunnart:fillColour="00000000;" dunnart:lineColour="00000000;" class="shape" style="fill:#000000;" width="54" height="34" x="388" y="315.2000001"/>
  <text id="text7" class="tLabel" x="415" y="329.2">
    <tspan id="tspan7n0" class="tsLabel" x="415" y="329.2" sodipodi:role="line">United</tspan>
    <tspan id="tspan7n1" class="tsLabel" x="415" y="343.2" sodipodi:role="line">Kingdom</tspan>
  </text>
  <rect dunnart:type="rect" id="8" dunnart:xPos="385" dunnart:yPos="269" dunnart:width="60" dunnart:height="40" dunnart:label="British&#10;Isles" dunnart:fillColour="00000000;" dunnart:lineColour="00000000;" class="shape" style="fill:#000000;" width="54" height="34" x="388.0776298" y="272.026213"/>
  <text id="text8" class="tLabel" x="415.078" y="286.026">
    <tspan id="tspan8n0" class="tsLabel" x="415.078" y="286.026" sodipodi:role="line">British</tspan>
    <tspan id="tspan8n1" class="tsLabel" x="415.078" y="300.026" sodipodi:role="line">Isles</tspan>
  </text>
  <rect dunnart:type="rect" id="11" dunnart:xPos="323" dunnart:yPos="312" dunnart:width="60" dunnart:height="40" dunnart:label="Ireland" dunnart:fillColour="00000000;" dunnart:lineColour="00000000;" class="shape" style="fill:#000000;" width="54" height="34" x="326.5296273" y="315.5000106"/>
  <text id="text11" class="tLabel" x="353.53" y="336.5">
    <tspan id="tspan11n0" class="tsLabel" x="353.53" y="336.5" sodipodi:role="line">Ireland</tspan>
  </text>
</svg>
